<?xml version="1.0" encoding="utf-8"?>
<!-- Generator: Adobe Illustrator 25.0.0, SVG Export Plug-In . SVG Version: 6.00 Build 0)  -->
<svg version="1.1" id="Layer_1" xmlns="http://www.w3.org/2000/svg" xmlns:xlink="http://www.w3.org/1999/xlink" x="0px" y="0px"
	 viewBox="0 0 582 112" style="enable-background:new 0 0 582 112;" xml:space="preserve">
<style type="text/css">
	.st0{fill:#FFFFFF;}
	.st1{fill:url(#SVGID_1_);}
	.st2{fill:url(#SVGID_2_);}
	.st3{fill:url(#SVGID_3_);}
	.st4{fill:url(#SVGID_4_);}
</style>
<g>
	
		<linearGradient id="SVGID_1_" gradientUnits="userSpaceOnUse" x1="54.0938" y1="-6.0769" x2="15.806" y2="80.9408">
			<stop  offset="0" style="stop-color:#9EFFAC"/>
			<stop  offset="1" style="stop-color:#159669"/>
		</linearGradient>
		<path class="st1" d="M36.7,37.1c-2.6,2.6-3.9,6-3.9,9.4c0,3.4,1.3,6.8,3.9,9.4c5.2,5.2,13.7,5.2,18.9,0l-9.5,9.5
			c-10.4,10.4-27.3,10.4-37.8,0l0,0C-2.1,55-2.1,38.1,8.3,27.6L27.2,8.8c5.2-5.2,12.1-7.8,18.9-7.8h37.8c-6.8,0-13.7,2.6-18.9,7.8
			L36.7,37.1z"/>
		<linearGradient id="SVGID_2_" gradientUnits="userSpaceOnUse" x1="25.9676" y1="146.6386" x2="116.3573" y2="13.8277">
			<stop  offset="0" style="stop-color:#45C28B"/>
			<stop  offset="0.9944" style="stop-color:#0C3F4F"/>
		</linearGradient>
		<path class="st2" d="M121.7,27.7c10.4,10.4,10.4,27.4,0,37.8L84,103.2c-10.4,10.4-27.4,10.4-37.8,0L27.3,84.3
			c10.4,10.4,27.4,10.4,37.8,0L93.4,56c5.2-5.2,5.2-13.7,0-18.9c-5.2-5.2-13.7-5.2-18.9,0l9.5-9.5c5.2-5.2,12.1-7.8,18.9-7.8
			C109.7,19.8,116.5,22.4,121.7,27.7z"/>
		<linearGradient id="SVGID_3_" gradientUnits="userSpaceOnUse" x1="7.9054" y1="90.4418" x2="130.9268" y2="27.1363">
			<stop  offset="0" style="stop-color:#9EFFAC"/>
			<stop  offset="0.9944" style="stop-color:#17A170"/>
		</linearGradient>
		<path class="st3" d="M93.4,37.1c5.2,5.2,5.2,13.7,0,18.9L65.1,84.3c-10.4,10.4-27.4,10.4-37.8,0L8.4,65.4
			c10.4,10.4,27.4,10.4,37.8,0l28.3-28.3C79.7,31.9,88.2,31.9,93.4,37.1z"/>
		<linearGradient id="SVGID_4_" gradientUnits="userSpaceOnUse" x1="145.1307" y1="-32.3173" x2="20.8041" y2="89.0725">
			<stop  offset="0" style="stop-color:#45C28B"/>
			<stop  offset="0.9944" style="stop-color:#0C3F4F"/>
		</linearGradient>
		<path class="st4" d="M121.7,27.7c-5.2-5.2-12.1-7.8-18.9-7.8c-6.8,0-13.7,2.6-18.9,7.8L74.6,37l-19,19c-5.2,5.2-13.7,5.2-18.9,0
			c-2.6-2.6-3.9-6-3.9-9.4c0-3.4,1.3-6.8,3.9-9.4L65,8.8c5.2-5.2,12.1-7.8,18.9-7.8c6.8,0,13.7,2.6,18.9,7.8L121.7,27.7z"/>
	
</g>
</svg>
